<svg width="1394" height="699" viewBox="0 0 1394 699" fill="none" xmlns="http://www.w3.org/2000/svg">
<path d="M1.01617 697.119L1 0M117.032 697.119L117.016 0M233.049 697.119L233.032 0M349.065 697.119L349.049 0M465.081 697.119L465.065 0M581.097 697.119L581.081 0M697.113 697.119L697.097 0M813.129 697.119L813.113 0M929.146 697.119L929.129 0M1045.16 697.119L1045.15 0M1161.18 697.119L1161.16 0M1277.19 697.119L1277.18 0M1393.21 697.119L1393.19 0M1392.5 697.597L1.50002 697.613M1392.5 581.581L1.50002 581.597M1392.5 465.565L1.50002 465.581M1392.5 349.549L1.50002 349.565M1392.5 233.532L1.50002 233.549M1392.5 117.516L1.50002 117.532M1392.5 1.49999L1.50002 1.51616" stroke="#202020"/>
</svg>
