<svg width="389" height="429" viewBox="0 0 389 429" fill="none" xmlns="http://www.w3.org/2000/svg">
<path d="M295.953 374.996C296.541 378.82 295.718 383.181 293.41 386.819C289.516 392.997 282.96 396.432 277.113 398.626C276.473 398.856 275.953 398.977 275.365 399.099C274.916 399.19 274.565 399.251 274.126 399.319C270.891 399.617 267.668 399.884 264.455 400.127C263.404 402.292 261.979 404.317 260.366 406.158C251.907 415.473 240.192 420.692 229.056 424.915C215.736 428.548 204.848 428.355 192.972 428.529C177.521 428.387 162.458 427.469 146.761 424.297C136.223 421.607 129.068 415.339 122.475 408.873C120.582 406.941 118.76 404.916 117.115 402.797C117.343 402.554 117.57 402.31 117.798 402.067C119.986 403.527 122.272 404.882 124.557 406.148C132.296 410.363 140.802 414.241 148.152 414.567C162.647 414.81 178.066 414.407 193.015 414.529C204.171 414.469 216.571 415.024 225.857 413.949C237.078 411.506 248.33 409.264 258.078 403.493C259.599 402.553 261.064 401.496 262.413 400.277C230.246 402.605 199.082 402.397 167.332 402.613C151.337 402.562 135.36 402.145 119.315 400.604C111.537 399.719 103.677 397.02 97.936 391.579C95.2089 388.961 92.8968 385.788 91.9731 382.061L92.9399 381.803C94.0637 385.109 96.5119 387.907 99.2524 390.054C105.03 394.529 112.396 396.187 119.598 396.26C135.24 396.122 151.318 395.019 167.214 394.614C202.407 393.397 238.355 392.565 272.608 389.435C272.936 389.384 273.185 389.344 273.433 389.299C273.746 389.244 273.934 389.186 273.8 389.238C279.362 387.391 284.512 385.863 288.752 382.766C291.281 380.919 293.471 378.301 294.96 374.868C295.291 374.911 295.622 374.953 295.953 374.996ZM327.934 333.285C331.403 337.824 332.145 345.219 329.488 351.261C324.662 362.132 315.155 368.537 304.877 372.057L303.588 372.351C303.514 372.362 303.438 372.373 303.364 372.383C246.86 380.036 190.382 386.461 132.725 386.526C118.827 386.23 104.97 385.685 90.5141 380.979C75.3547 375.539 59.3158 366.05 52.9457 349.971C50.9186 344.607 50.2006 338.629 51.9662 333.334C52.2929 333.4 52.6201 333.464 52.9467 333.53C52.7912 338.722 54.8548 343.552 57.6283 347.554C66.1217 359.307 80.3428 364.532 94.3988 367.885C105.989 370.266 119.668 370.305 132.898 370.527C188.537 370.486 244.991 364.155 300.611 356.611C307.871 354.144 315.636 350.891 321.205 346.016C324.378 343.197 326.851 339.17 326.979 333.579C327.297 333.481 327.616 333.383 327.934 333.285ZM131.248 15.6146C167.649 -2.61076 211.141 -3.54042 250.619 5.93593C257.213 7.55565 262.819 9.05367 269.402 11.7836C272.617 13.2023 275.874 14.6384 279.339 17.7445C280.322 18.6778 281.096 19.5102 281.985 20.9144C282.914 22.4524 283.581 24.0337 283.755 26.2982C283.951 29.5649 282.741 32.1188 281.458 33.9096C287.946 32.9468 295.104 33.4167 301.785 38.2807C311.924 45.1799 313.436 61.6758 308.255 71.2777C308.085 71.6267 307.935 71.9326 307.775 72.2504C307.761 72.2956 307.748 72.3414 307.734 72.3871C307.45 73.2882 307.137 74.0512 306.799 74.767C306.155 76.1277 305.413 77.2924 304.718 78.2426C303.273 80.2055 301.819 81.6278 300.392 82.8588C297.479 85.3298 294.78 86.9114 292.069 88.3148C286.672 91.0496 281.502 92.75 276.399 94.1644C266.15 96.9371 256.285 98.3765 246.295 99.4223L245.32 99.4945C215.26 100.12 184.477 100.615 153.878 99.3207C138.556 98.66 123.211 97.6366 107.791 95.5609C100.075 94.4973 92.3411 93.1993 84.6088 91.1215C80.5972 90.0225 76.886 88.8466 72.8178 86.9008C69.5385 85.0857 64.9427 83.1508 62.8344 77.56C62.7483 78.0049 62.6627 78.45 62.5766 78.8949C55.8566 78.0229 49.0208 81.2125 44.5971 86.2475C37.1036 94.8197 34.8068 107.006 34.3178 118.961C89.3288 135.991 146.565 141.025 203.956 139.636C248.551 138.082 300.098 141.451 328.033 114.802C328.252 114.574 328.464 114.348 328.668 114.124C332.894 109.428 334.942 105.569 334.954 101.085C335.03 96.4703 331.976 90.135 327.172 84.6537C322.704 79.6779 317.187 74.4775 309.997 72.4301C309.97 72.0979 309.943 71.7652 309.916 71.433C317.892 68.9929 326.678 71.2004 334.361 74.8324C342.591 78.9379 351.003 85.8974 354.167 97.5111C355.389 101.887 355.372 106.351 354.527 110.597C358.796 112.798 363.515 115.226 367.887 118.419C373.377 122.638 379.525 127.886 381.92 138.971C383.545 145.964 381.446 156.24 376.518 162.194C374.852 164.335 373.134 166.091 371.406 167.57C378.697 170.975 385.398 178.139 387.421 187.596C390.479 202.863 385.855 218.044 374.525 229.721C379.366 238.226 380.727 250.803 374.765 260.175C368.72 270.025 359.584 275.029 351.055 278.779L349.128 279.319C345.238 279.915 341.416 280.472 337.589 281.002C314.765 284.156 291.742 286.669 268.63 287.738C268.215 287.759 267.797 287.78 267.38 287.801C263.172 303.339 254.899 316.581 244.118 325.609C270.922 323.503 297.726 319.311 322.162 310.794C333.505 306.424 346.244 304.022 353.066 295.891C356.373 291.92 356.468 285.198 353.542 279.211C353.819 279.025 354.095 278.839 354.372 278.653C358.924 283.407 362.997 290.7 361.065 299.086C356.325 315.709 341.884 324.334 329.147 329.535C295.109 341.783 260.679 345.982 225.941 348.073C190.27 349.807 154.897 348.084 119.705 344.583C97.0157 342.239 74.4839 338.318 52.3197 331.751C39.0131 327.957 23.5553 319.14 19.975 303.852C18.3173 296.817 19.4738 289.655 22.6059 283.93L20.5629 282.787C12.7493 278.53 5.42947 270.846 2.94181 261.423C0.361537 252.044 2.51609 242.743 6.68107 235.647C8.43885 232.645 10.5601 229.944 13.0258 227.678C13.3127 227.847 13.6002 228.017 13.8871 228.186C13.1685 231.349 12.8528 234.463 12.7797 237.489C12.4514 251.628 18.0252 260.232 27.3774 265.944C68.401 266.172 109.117 267.909 149.948 270.325C150.184 270.339 150.42 270.355 150.656 270.37C150.526 268.381 150.459 266.371 150.459 264.341C150.459 260.063 150.755 255.869 151.32 251.789C105.491 244.864 60.0841 238.159 14.3578 226.499C7.86532 224.974 1.2871 218.71 0.413494 211.94C-0.752119 205.321 0.732554 199.401 2.5551 193.921C5.28704 186.132 9.18303 179.013 13.727 172.435C9.09757 169.205 4.99111 164.248 4.25236 158.252C3.3551 151.379 5.95959 145.407 8.98185 140.411C13.1727 134.035 17.8164 128.217 24.5063 124.31L24.6928 122.201C26.0406 108.147 29.1407 92.754 40.2846 81.9682C46.0146 76.5374 54.2407 73.3917 62.1342 74.7318C61.0143 52.9361 81.2218 44.6597 94.9408 38.9389C99.8117 37.1111 104.776 35.5936 109.785 34.4125C109.79 33.843 109.878 33.264 110.066 32.682C111.158 29.3194 113.675 27.3613 116.14 25.5453L116.154 25.5346L117.008 24.8012C121.324 21.1766 126.223 18.222 131.248 15.6146ZM23.8608 283.932C22.6671 290.181 23.7756 296.538 26.557 301.41C32.3162 311.419 43.959 314.8 55.5932 316.113C77.4889 318.531 99.8045 320.414 121.922 322.696C140.626 324.56 159.398 325.984 178.131 326.691C166.447 317.456 157.53 303.363 153.253 286.722C151.897 286.673 150.535 286.625 149.164 286.578C107.789 285.278 66.1756 284.099 24.9731 283.932H23.8608ZM362.719 238.708C353.903 243.731 345.92 246.019 337.565 248.226C315.14 253.598 292.97 256.246 270.118 256.412C270.343 259.017 270.459 261.663 270.459 264.341C270.459 266.805 270.36 269.241 270.169 271.644C291.99 270.542 313.638 268.158 335.395 265.154C338.864 264.673 342.335 264.182 345.862 263.676C358.833 258.27 366.75 249.421 362.719 238.708ZM14.8569 173.184C11.4423 180.257 8.74879 187.706 7.30314 195.191C4.99144 205.743 7.34788 216.734 16.56 217.183C59.4053 222.185 103.779 224.138 147.521 226.959C152.659 217.189 158.738 208.168 166.298 199.621C118.956 201.127 60.5551 201.804 16.06 173.899C15.6577 173.674 15.2566 173.435 14.8569 173.184ZM368.317 169.94C366.136 171.44 363.98 172.6 361.933 173.632C352.617 178.066 344.218 179.811 336.006 181.28C311.012 185.647 285.696 191.364 259.282 195.689C267.523 204.02 272.973 213.502 277.076 222.853C294.682 221.866 312.589 219.278 329.417 215.216C337.812 213.153 346.982 210.764 352.251 208.708C359.022 206.125 367.905 197.646 370.855 188.266C372.635 183.05 372.069 176.377 368.317 169.94ZM24.6791 125.65C19.6463 129.949 15.58 136.344 12.7875 142.42C7.83977 152.453 10.3109 162.856 20.0248 166.101C67.9673 187.365 116.198 180.654 170.979 175.295C171.548 174.864 172.088 174.487 172.653 174.069C174.3 172.93 175.846 172.037 177.387 171.23C180.463 169.629 183.444 168.43 186.422 167.413C192.364 165.402 198.208 164.164 204.018 163.313C217.187 161.799 229.885 161.814 243.924 168.787C271.903 163.395 300.688 155.819 330.465 150.117C337.047 148.898 343.577 147.144 347.826 145.007C348.894 144.496 349.747 143.928 350.303 143.51C349.977 141.713 349.155 138.349 347.848 134.908C347.099 132.834 346.249 130.722 345.298 128.548C345.168 128.688 345.04 128.829 344.91 128.965C344.574 129.333 344.231 129.698 343.88 130.062C300.851 167.814 248.884 158.042 203.956 159.228C144.305 158.666 83.3298 149.62 27.8559 126.924L24.6791 125.65ZM351.018 142.898C351.011 142.904 351 142.921 350.984 142.946C351.033 142.897 351.047 142.879 351.018 142.898ZM280.87 34.6801C280.558 35.0606 280.255 35.3959 279.978 35.683C243.939 56.4805 212.056 55.4573 176.202 56.9066C155.226 54.3937 133.479 53.2218 114.111 41.6928C112.335 40.3896 110.44 38.2225 109.922 35.7641C105.289 37.6296 100.763 39.7766 96.4145 42.1537C83.2312 49.268 68.1906 61.353 71.7445 73.5619C115.532 89.63 185.829 77.9659 244.032 76.3852C253.055 75.1749 261.824 73.6287 269.963 71.2836C274.04 70.1002 277.967 68.6777 281.098 67.0424C282.466 66.3312 283.654 65.5707 284.455 64.9281V64.4711L286.233 61.6469C286.237 61.6403 286.242 61.633 286.247 61.6234C286.28 61.566 286.306 61.5169 286.346 61.4418C286.419 61.3042 286.505 61.1303 286.58 60.974C287.56 58.907 288.37 56.77 288.916 55.0355C289.445 53.2765 289.954 51.5264 289.37 48.7894C288.554 44.8387 285.201 39.8159 280.791 34.9037C280.818 34.8292 280.843 34.7546 280.87 34.6801ZM247.295 18.9281C210.173 8.85543 169.951 6.14927 132.654 18.849C127.151 20.8243 121.703 23.1619 116.767 26.3246C114.626 28.3585 112.633 30.7087 112.248 33.1781C111.851 35.6331 113.718 37.517 116.046 38.8783C134.256 46.8404 156.276 46.2405 176.711 46.9584C206.91 44.0762 245.165 39.1651 268.326 26.8207C267.135 26.0523 265.525 25.2062 263.899 24.4965C258.656 22.2169 253.426 20.6186 247.295 18.9281Z" fill="white"/>
</svg>
